<svg width="15" height="16" viewBox="0 0 15 16" fill="none" xmlns="http://www.w3.org/2000/svg">
<path fill-rule="evenodd" clip-rule="evenodd" d="M11.4671 4.61095C11.7561 4.79995 11.8371 5.18695 11.6481 5.47595L7.39809 11.976C7.34857 12.0517 7.2832 12.1158 7.20649 12.1638C7.12978 12.2118 7.04357 12.2425 6.9538 12.2539C6.86404 12.2653 6.77287 12.2571 6.68659 12.2298C6.60031 12.2026 6.52099 12.1569 6.45409 12.096L3.70409 9.59595C3.58143 9.48443 3.50809 9.32874 3.50022 9.16315C3.49234 8.99755 3.55057 8.83561 3.66209 8.71295C3.77362 8.59029 3.9293 8.51695 4.0949 8.50908C4.26049 8.5012 4.42243 8.55943 4.54509 8.67095L6.75309 10.6779L10.6021 4.79195C10.6928 4.65326 10.8349 4.55629 10.9971 4.52235C11.1593 4.4884 11.3284 4.52027 11.4671 4.61095Z" fill="black"/>
</svg>
